<?xml version="1.0" standalone="no"?><!DOCTYPE svg PUBLIC "-//W3C//DTD SVG 1.1//EN" "http://www.w3.org/Graphics/SVG/1.1/DTD/svg11.dtd"><svg t="1506591274435" class="icon" style="" viewBox="0 0 1024 1024" version="1.1" xmlns="http://www.w3.org/2000/svg" p-id="3178" xmlns:xlink="http://www.w3.org/1999/xlink" width="16" height="16"><defs><style type="text/css"></style></defs><path d="M1006.378296 281.172591 411.149357 880.444104c-14.905878 15.01273-39.143513 15.01273-54.058296 0L345.043478 868.352l-0.044522 0.053426-12.982539-13.187339-56.133009-56.480278c-0.34727-0.391791-0.445217-0.890435-0.792487-1.282226l-257.424696-261.075478c-14.959304-15.057252-14.959304-39.455165 0-54.458991l81.16313-81.706296c14.914783-15.057252 39.152417-15.057252 54.058296 0L384.436313 634.969043l486.658226-490.015165c14.959304-15.01273 39.152417-15.01273 54.120626 0l81.16313 81.706296C1021.284174 241.72633 1021.284174 266.115339 1006.378296 281.172591z" p-id="3179" fill="#ffffff"></path></svg>