<?xml version="1.0" standalone="no"?><!DOCTYPE svg PUBLIC "-//W3C//DTD SVG 1.1//EN" "http://www.w3.org/Graphics/SVG/1.1/DTD/svg11.dtd"><svg t="1506579694892" class="icon" style="" viewBox="0 0 1024 1024" version="1.1" xmlns="http://www.w3.org/2000/svg" p-id="5347" xmlns:xlink="http://www.w3.org/1999/xlink" width="16" height="16"><defs><style type="text/css"></style></defs><path d="M512 1024A512 512 0 1 1 512 0a512 512 0 0 1 0 1024z m-47.786667-816.469333l16.384 449.194666h63.488l15.36-449.194666H464.213333z m47.104 523.946666a54.954667 54.954667 0 0 0-43.008 17.408 55.808 55.808 0 0 0-18.432 43.008c0 17.408 6.144 31.744 18.432 44.032 11.264 11.264 25.6 17.408 43.008 17.408a65.28 65.28 0 0 0 45.056-17.408 59.392 59.392 0 0 0 17.408-44.032 59.392 59.392 0 0 0-62.464-60.416z" p-id="5348" fill="#ffc601"></path></svg>